<?xml version="1.0" encoding="UTF-8" standalone="yes"?>
<!DOCTYPE svg PUBLIC "-//W3C//DTD SVG 1.0//EN" "http://www.w3.org/TR/2001/REC-SVG-20010904/DTD/svg10.dtd">
<svg height="726" width="726" xmlns="http://www.w3.org/2000/svg" xmlns:svg="http://www.w3.org/2000/svg" xmlns:xlink="http://www.w3.org/1999/xlink">
	<rect height="66" style="fill: black; fill-opacity: 0; stroke: black; stroke-opacity: 1; stroke-width: 3" width="66" x="99" y="99" />
	<rect height="66" style="fill: black; fill-opacity: 0; stroke: black; stroke-opacity: 1; stroke-width: 3" width="66" x="99" y="165" />
	<rect height="66" style="fill: black; fill-opacity: 0; stroke: black; stroke-opacity: 1; stroke-width: 3" width="66" x="99" y="231" />
	<rect height="66" style="fill: black; fill-opacity: 0; stroke: black; stroke-opacity: 1; stroke-width: 3" width="66" x="99" y="297" />
	<rect height="66" style="fill: black; fill-opacity: 0; stroke: black; stroke-opacity: 1; stroke-width: 3" width="66" x="99" y="363" />
	<rect height="66" style="fill: black; fill-opacity: 0; stroke: black; stroke-opacity: 1; stroke-width: 3" width="66" x="99" y="429" />
	<rect height="66" style="fill: black; fill-opacity: 0; stroke: black; stroke-opacity: 1; stroke-width: 3" width="66" x="99" y="495" />
	<rect height="66" style="fill: black; fill-opacity: 0; stroke: black; stroke-opacity: 1; stroke-width: 3" width="66" x="99" y="561" />
	<rect height="66" style="fill: black; fill-opacity: 0; stroke: black; stroke-opacity: 1; stroke-width: 3" width="66" x="165" y="99" />
	<rect height="66" style="fill: black; fill-opacity: 0; stroke: black; stroke-opacity: 1; stroke-width: 3" width="66" x="165" y="165" />
	<rect height="66" style="fill: black; fill-opacity: 0; stroke: black; stroke-opacity: 1; stroke-width: 3" width="66" x="165" y="231" />
	<rect height="66" style="fill: black; fill-opacity: 0; stroke: black; stroke-opacity: 1; stroke-width: 3" width="66" x="165" y="297" />
	<rect height="66" style="fill: black; fill-opacity: 0; stroke: black; stroke-opacity: 1; stroke-width: 3" width="66" x="165" y="363" />
	<rect height="66" style="fill: black; fill-opacity: 0; stroke: black; stroke-opacity: 1; stroke-width: 3" width="66" x="165" y="429" />
	<rect height="66" style="fill: black; fill-opacity: 0; stroke: black; stroke-opacity: 1; stroke-width: 3" width="66" x="165" y="495" />
	<rect height="66" style="fill: black; fill-opacity: 0; stroke: black; stroke-opacity: 1; stroke-width: 3" width="66" x="165" y="561" />
	<rect height="66" style="fill: black; fill-opacity: 0; stroke: black; stroke-opacity: 1; stroke-width: 3" width="66" x="231" y="99" />
	<rect height="66" style="fill: black; fill-opacity: 0; stroke: black; stroke-opacity: 1; stroke-width: 3" width="66" x="231" y="165" />
	<rect height="66" style="fill: black; fill-opacity: 0; stroke: black; stroke-opacity: 1; stroke-width: 3" width="66" x="231" y="231" />
	<rect height="66" style="fill: black; fill-opacity: 0; stroke: black; stroke-opacity: 1; stroke-width: 3" width="66" x="231" y="297" />
	<rect height="66" style="fill: black; fill-opacity: 0; stroke: black; stroke-opacity: 1; stroke-width: 3" width="66" x="231" y="363" />
	<rect height="66" style="fill: black; fill-opacity: 0; stroke: black; stroke-opacity: 1; stroke-width: 3" width="66" x="231" y="429" />
	<rect height="66" style="fill: black; fill-opacity: 0; stroke: black; stroke-opacity: 1; stroke-width: 3" width="66" x="231" y="495" />
	<rect height="66" style="fill: black; fill-opacity: 0; stroke: black; stroke-opacity: 1; stroke-width: 3" width="66" x="231" y="561" />
	<rect height="66" style="fill: black; fill-opacity: 0; stroke: black; stroke-opacity: 1; stroke-width: 3" width="66" x="297" y="99" />
	<rect height="66" style="fill: black; fill-opacity: 0; stroke: black; stroke-opacity: 1; stroke-width: 3" width="66" x="297" y="165" />
	<rect height="66" style="fill: black; fill-opacity: 0; stroke: black; stroke-opacity: 1; stroke-width: 3" width="66" x="297" y="231" />
	<rect height="66" style="fill: black; fill-opacity: 0; stroke: black; stroke-opacity: 1; stroke-width: 3" width="66" x="297" y="297" />
	<rect height="66" style="fill: black; fill-opacity: 0; stroke: black; stroke-opacity: 1; stroke-width: 3" width="66" x="297" y="363" />
	<rect height="66" style="fill: black; fill-opacity: 0; stroke: black; stroke-opacity: 1; stroke-width: 3" width="66" x="297" y="429" />
	<rect height="66" style="fill: black; fill-opacity: 0; stroke: black; stroke-opacity: 1; stroke-width: 3" width="66" x="297" y="495" />
	<rect height="66" style="fill: black; fill-opacity: 0; stroke: black; stroke-opacity: 1; stroke-width: 3" width="66" x="297" y="561" />
	<rect height="66" style="fill: black; fill-opacity: 0; stroke: black; stroke-opacity: 1; stroke-width: 3" width="66" x="363" y="99" />
	<rect height="66" style="fill: black; fill-opacity: 0; stroke: black; stroke-opacity: 1; stroke-width: 3" width="66" x="363" y="165" />
	<rect height="66" style="fill: black; fill-opacity: 0; stroke: black; stroke-opacity: 1; stroke-width: 3" width="66" x="363" y="231" />
	<rect height="66" style="fill: black; fill-opacity: 0; stroke: black; stroke-opacity: 1; stroke-width: 3" width="66" x="363" y="297" />
	<rect height="66" style="fill: black; fill-opacity: 0; stroke: black; stroke-opacity: 1; stroke-width: 3" width="66" x="363" y="363" />
	<rect height="66" style="fill: black; fill-opacity: 0; stroke: black; stroke-opacity: 1; stroke-width: 3" width="66" x="363" y="429" />
	<rect height="66" style="fill: black; fill-opacity: 0; stroke: black; stroke-opacity: 1; stroke-width: 3" width="66" x="363" y="495" />
	<rect height="66" style="fill: black; fill-opacity: 0; stroke: black; stroke-opacity: 1; stroke-width: 3" width="66" x="363" y="561" />
	<rect height="66" style="fill: black; fill-opacity: 0; stroke: black; stroke-opacity: 1; stroke-width: 3" width="66" x="429" y="99" />
	<rect height="66" style="fill: black; fill-opacity: 0; stroke: black; stroke-opacity: 1; stroke-width: 3" width="66" x="429" y="165" />
	<rect height="66" style="fill: black; fill-opacity: 0; stroke: black; stroke-opacity: 1; stroke-width: 3" width="66" x="429" y="231" />
	<rect height="66" style="fill: black; fill-opacity: 0; stroke: black; stroke-opacity: 1; stroke-width: 3" width="66" x="429" y="297" />
	<rect height="66" style="fill: black; fill-opacity: 0; stroke: black; stroke-opacity: 1; stroke-width: 3" width="66" x="429" y="363" />
	<rect height="66" style="fill: black; fill-opacity: 0; stroke: black; stroke-opacity: 1; stroke-width: 3" width="66" x="429" y="429" />
	<rect height="66" style="fill: black; fill-opacity: 0; stroke: black; stroke-opacity: 1; stroke-width: 3" width="66" x="429" y="495" />
	<rect height="66" style="fill: black; fill-opacity: 0; stroke: black; stroke-opacity: 1; stroke-width: 3" width="66" x="429" y="561" />
	<rect height="66" style="fill: black; fill-opacity: 0; stroke: black; stroke-opacity: 1; stroke-width: 3" width="66" x="495" y="99" />
	<rect height="66" style="fill: black; fill-opacity: 0; stroke: black; stroke-opacity: 1; stroke-width: 3" width="66" x="495" y="165" />
	<rect height="66" style="fill: black; fill-opacity: 0; stroke: black; stroke-opacity: 1; stroke-width: 3" width="66" x="495" y="231" />
	<rect height="66" style="fill: black; fill-opacity: 0; stroke: black; stroke-opacity: 1; stroke-width: 3" width="66" x="495" y="297" />
	<rect height="66" style="fill: black; fill-opacity: 0; stroke: black; stroke-opacity: 1; stroke-width: 3" width="66" x="495" y="363" />
	<rect height="66" style="fill: black; fill-opacity: 0; stroke: black; stroke-opacity: 1; stroke-width: 3" width="66" x="495" y="429" />
	<rect height="66" style="fill: black; fill-opacity: 0; stroke: black; stroke-opacity: 1; stroke-width: 3" width="66" x="495" y="495" />
	<rect height="66" style="fill: black; fill-opacity: 0; stroke: black; stroke-opacity: 1; stroke-width: 3" width="66" x="495" y="561" />
	<rect height="66" style="fill: black; fill-opacity: 0; stroke: black; stroke-opacity: 1; stroke-width: 3" width="66" x="561" y="99" />
	<rect height="66" style="fill: black; fill-opacity: 0; stroke: black; stroke-opacity: 1; stroke-width: 3" width="66" x="561" y="165" />
	<rect height="66" style="fill: black; fill-opacity: 0; stroke: black; stroke-opacity: 1; stroke-width: 3" width="66" x="561" y="231" />
	<rect height="66" style="fill: black; fill-opacity: 0; stroke: black; stroke-opacity: 1; stroke-width: 3" width="66" x="561" y="297" />
	<rect height="66" style="fill: black; fill-opacity: 0; stroke: black; stroke-opacity: 1; stroke-width: 3" width="66" x="561" y="363" />
	<rect height="66" style="fill: black; fill-opacity: 0; stroke: black; stroke-opacity: 1; stroke-width: 3" width="66" x="561" y="429" />
	<rect height="66" style="fill: black; fill-opacity: 0; stroke: black; stroke-opacity: 1; stroke-width: 3" width="66" x="561" y="495" />
	<rect height="66" style="fill: black; fill-opacity: 0; stroke: black; stroke-opacity: 1; stroke-width: 3" width="66" x="561" y="561" />
	<polygon points="99,99 231,231 " style="fill: black; fill-opacity: 1; stroke: black; stroke-opacity: 1; stroke-width: 3" />
	<polygon points="231,99 363,231 " style="fill: black; fill-opacity: 1; stroke: black; stroke-opacity: 1; stroke-width: 3" />
	<polygon points="363,99 495,231 " style="fill: black; fill-opacity: 1; stroke: black; stroke-opacity: 1; stroke-width: 3" />
	<polygon points="495,99 627,231 " style="fill: black; fill-opacity: 1; stroke: black; stroke-opacity: 1; stroke-width: 3" />
	<polygon points="99,231 231,363 " style="fill: black; fill-opacity: 1; stroke: black; stroke-opacity: 1; stroke-width: 3" />
	<polygon points="231,231 363,363 " style="fill: black; fill-opacity: 1; stroke: black; stroke-opacity: 1; stroke-width: 3" />
	<polygon points="363,231 495,363 " style="fill: black; fill-opacity: 1; stroke: black; stroke-opacity: 1; stroke-width: 3" />
	<polygon points="495,231 627,363 " style="fill: black; fill-opacity: 1; stroke: black; stroke-opacity: 1; stroke-width: 3" />
	<polygon points="99,363 231,495 " style="fill: black; fill-opacity: 1; stroke: black; stroke-opacity: 1; stroke-width: 3" />
	<polygon points="231,363 363,495 " style="fill: black; fill-opacity: 1; stroke: black; stroke-opacity: 1; stroke-width: 3" />
	<polygon points="363,363 495,495 " style="fill: black; fill-opacity: 1; stroke: black; stroke-opacity: 1; stroke-width: 3" />
	<polygon points="495,363 627,495 " style="fill: black; fill-opacity: 1; stroke: black; stroke-opacity: 1; stroke-width: 3" />
	<polygon points="99,495 231,627 " style="fill: black; fill-opacity: 1; stroke: black; stroke-opacity: 1; stroke-width: 3" />
	<polygon points="231,495 363,627 " style="fill: black; fill-opacity: 1; stroke: black; stroke-opacity: 1; stroke-width: 3" />
	<polygon points="363,495 495,627 " style="fill: black; fill-opacity: 1; stroke: black; stroke-opacity: 1; stroke-width: 3" />
	<polygon points="495,495 627,627 " style="fill: black; fill-opacity: 1; stroke: black; stroke-opacity: 1; stroke-width: 3" />
	<polygon points="231,99 99,231 " style="fill: black; fill-opacity: 1; stroke: black; stroke-opacity: 1; stroke-width: 3" />
	<polygon points="363,99 231,231 " style="fill: black; fill-opacity: 1; stroke: black; stroke-opacity: 1; stroke-width: 3" />
	<polygon points="495,99 363,231 " style="fill: black; fill-opacity: 1; stroke: black; stroke-opacity: 1; stroke-width: 3" />
	<polygon points="627,99 495,231 " style="fill: black; fill-opacity: 1; stroke: black; stroke-opacity: 1; stroke-width: 3" />
	<polygon points="231,231 99,363 " style="fill: black; fill-opacity: 1; stroke: black; stroke-opacity: 1; stroke-width: 3" />
	<polygon points="363,231 231,363 " style="fill: black; fill-opacity: 1; stroke: black; stroke-opacity: 1; stroke-width: 3" />
	<polygon points="495,231 363,363 " style="fill: black; fill-opacity: 1; stroke: black; stroke-opacity: 1; stroke-width: 3" />
	<polygon points="627,231 495,363 " style="fill: black; fill-opacity: 1; stroke: black; stroke-opacity: 1; stroke-width: 3" />
	<polygon points="231,363 99,495 " style="fill: black; fill-opacity: 1; stroke: black; stroke-opacity: 1; stroke-width: 3" />
	<polygon points="363,363 231,495 " style="fill: black; fill-opacity: 1; stroke: black; stroke-opacity: 1; stroke-width: 3" />
	<polygon points="495,363 363,495 " style="fill: black; fill-opacity: 1; stroke: black; stroke-opacity: 1; stroke-width: 3" />
	<polygon points="627,363 495,495 " style="fill: black; fill-opacity: 1; stroke: black; stroke-opacity: 1; stroke-width: 3" />
	<polygon points="231,495 99,627 " style="fill: black; fill-opacity: 1; stroke: black; stroke-opacity: 1; stroke-width: 3" />
	<polygon points="363,495 231,627 " style="fill: black; fill-opacity: 1; stroke: black; stroke-opacity: 1; stroke-width: 3" />
	<polygon points="495,495 363,627 " style="fill: black; fill-opacity: 1; stroke: black; stroke-opacity: 1; stroke-width: 3" />
	<polygon points="627,495 495,627 " style="fill: black; fill-opacity: 1; stroke: black; stroke-opacity: 1; stroke-width: 3" />
	<circle cx="99" cy="99" r="7" />
	<circle cx="99" cy="165" r="7" />
	<circle cx="99" cy="231" r="7" />
	<circle cx="99" cy="297" r="7" />
	<circle cx="99" cy="363" r="7" />
	<circle cx="99" cy="429" r="7" />
	<circle cx="99" cy="495" r="7" />
	<circle cx="99" cy="561" r="7" />
	<circle cx="165" cy="99" r="7" />
	<circle cx="165" cy="165" r="7" />
	<circle cx="165" cy="231" r="7" />
	<circle cx="165" cy="297" r="7" />
	<circle cx="165" cy="363" r="7" />
	<circle cx="165" cy="429" r="7" />
	<circle cx="165" cy="495" r="7" />
	<circle cx="165" cy="561" r="7" />
	<circle cx="231" cy="99" r="7" />
	<circle cx="231" cy="165" r="7" />
	<circle cx="231" cy="231" r="7" />
	<circle cx="231" cy="297" r="7" />
	<circle cx="231" cy="363" r="7" />
	<circle cx="231" cy="429" r="7" />
	<circle cx="231" cy="495" r="7" />
	<circle cx="231" cy="561" r="7" />
	<circle cx="297" cy="99" r="7" />
	<circle cx="297" cy="165" r="7" />
	<circle cx="297" cy="231" r="7" />
	<circle cx="297" cy="297" r="7" />
	<circle cx="297" cy="363" r="7" />
	<circle cx="297" cy="429" r="7" />
	<circle cx="297" cy="495" r="7" />
	<circle cx="297" cy="561" r="7" />
	<circle cx="363" cy="99" r="7" />
	<circle cx="363" cy="165" r="7" />
	<circle cx="363" cy="231" r="7" />
	<circle cx="363" cy="297" r="7" />
	<circle cx="363" cy="363" r="7" />
	<circle cx="363" cy="429" r="7" />
	<circle cx="363" cy="495" r="7" />
	<circle cx="363" cy="561" r="7" />
	<circle cx="429" cy="99" r="7" />
	<circle cx="429" cy="165" r="7" />
	<circle cx="429" cy="231" r="7" />
	<circle cx="429" cy="297" r="7" />
	<circle cx="429" cy="363" r="7" />
	<circle cx="429" cy="429" r="7" />
	<circle cx="429" cy="495" r="7" />
	<circle cx="429" cy="561" r="7" />
	<circle cx="495" cy="99" r="7" />
	<circle cx="495" cy="165" r="7" />
	<circle cx="495" cy="231" r="7" />
	<circle cx="495" cy="297" r="7" />
	<circle cx="495" cy="363" r="7" />
	<circle cx="495" cy="429" r="7" />
	<circle cx="495" cy="495" r="7" />
	<circle cx="495" cy="561" r="7" />
	<circle cx="561" cy="99" r="7" />
	<circle cx="561" cy="165" r="7" />
	<circle cx="561" cy="231" r="7" />
	<circle cx="561" cy="297" r="7" />
	<circle cx="561" cy="363" r="7" />
	<circle cx="561" cy="429" r="7" />
	<circle cx="561" cy="495" r="7" />
	<circle cx="561" cy="561" r="7" />
	<circle cx="627" cy="99" r="7" />
	<circle cx="627" cy="165" r="7" />
	<circle cx="627" cy="231" r="7" />
	<circle cx="627" cy="297" r="7" />
	<circle cx="627" cy="363" r="7" />
	<circle cx="627" cy="429" r="7" />
	<circle cx="627" cy="495" r="7" />
	<circle cx="627" cy="561" r="7" />
	<circle cx="99" cy="627" r="7" />
	<circle cx="165" cy="627" r="7" />
	<circle cx="231" cy="627" r="7" />
	<circle cx="297" cy="627" r="7" />
	<circle cx="363" cy="627" r="7" />
	<circle cx="429" cy="627" r="7" />
	<circle cx="495" cy="627" r="7" />
	<circle cx="561" cy="627" r="7" />
	<circle cx="627" cy="627" r="7" />
	<text id="l1" style="fill: black; font: Serif; font-size: 33" x="253" y="62.7">Alquerque 8 x 8</text>
	<!--
	Generated using the Perl SVG Module V2.84
	by Ronan Oger
	Info: http://www.roitsystems.com/
	-->
</svg>