<?xml version="1.0" encoding="utf-8" ?>
<svg baseProfile="tiny" height="100%" version="1.2" width="100%" xmlns="http://www.w3.org/2000/svg" xmlns:ev="http://www.w3.org/2001/xml-events" xmlns:xlink="http://www.w3.org/1999/xlink"><defs /><circle cx="50.0" cy="50.0" fill="black" r="15.0" stroke="rgb(10,10,10)" /><circle cx="50.0" cy="450.0" fill="black" r="15.0" stroke="rgb(10,10,10)" /><circle cx="50.0" cy="850.0" fill="black" r="15.0" stroke="rgb(10,10,10)" /><circle cx="150.0" cy="150.0" fill="black" r="15.0" stroke="rgb(10,10,10)" /><circle cx="150.0" cy="450.0" fill="black" r="15.0" stroke="rgb(10,10,10)" /><circle cx="150.0" cy="750.0" fill="black" r="15.0" stroke="rgb(10,10,10)" /><circle cx="250.0" cy="250.0" fill="black" r="15.0" stroke="rgb(10,10,10)" /><circle cx="250.0" cy="450.0" fill="black" r="15.0" stroke="rgb(10,10,10)" /><circle cx="250.0" cy="650.0" fill="black" r="15.0" stroke="rgb(10,10,10)" /><circle cx="450.0" cy="50.0" fill="black" r="15.0" stroke="rgb(10,10,10)" /><circle cx="450.0" cy="150.0" fill="black" r="15.0" stroke="rgb(10,10,10)" /><circle cx="450.0" cy="250.0" fill="black" r="15.0" stroke="rgb(10,10,10)" /><circle cx="450.0" cy="650.0" fill="black" r="15.0" stroke="rgb(10,10,10)" /><circle cx="450.0" cy="750.0" fill="black" r="15.0" stroke="rgb(10,10,10)" /><circle cx="450.0" cy="850.0" fill="black" r="15.0" stroke="rgb(10,10,10)" /><circle cx="650.0" cy="250.0" fill="black" r="15.0" stroke="rgb(10,10,10)" /><circle cx="650.0" cy="450.0" fill="black" r="15.0" stroke="rgb(10,10,10)" /><circle cx="650.0" cy="650.0" fill="black" r="15.0" stroke="rgb(10,10,10)" /><circle cx="750.0" cy="150.0" fill="black" r="15.0" stroke="rgb(10,10,10)" /><circle cx="750.0" cy="450.0" fill="black" r="15.0" stroke="rgb(10,10,10)" /><circle cx="750.0" cy="750.0" fill="black" r="15.0" stroke="rgb(10,10,10)" /><circle cx="850.0" cy="50.0" fill="black" r="15.0" stroke="rgb(10,10,10)" /><circle cx="850.0" cy="450.0" fill="black" r="15.0" stroke="rgb(10,10,10)" /><circle cx="850.0" cy="850.0" fill="black" r="15.0" stroke="rgb(10,10,10)" /><line stroke="rgb(10,10,20)" stroke-width="7" x1="450.0" x2="450.0" y1="50.0" y2="250.0" /><line stroke="rgb(10,10,20)" stroke-width="7" x1="650.0" x2="850.0" y1="450.0" y2="450.0" /><line stroke="rgb(10,10,20)" stroke-width="7" x1="450.0" x2="450.0" y1="650.0" y2="850.0" /><line stroke="rgb(10,10,20)" stroke-width="7" x1="50.0" x2="250.0" y1="450.0" y2="450.0" /><rect fill="none" height="800.0" stroke="rgb(10,10,20)" stroke-width="7" width="800.0" x="50.0" y="50.0" /><rect fill="none" height="600.0" stroke="rgb(10,10,20)" stroke-width="7" width="600.0" x="150.0" y="150.0" /><rect fill="none" height="400.0" stroke="rgb(10,10,20)" stroke-width="7" width="400.0" x="250.0" y="250.0" /></svg>