<?xml version="1.0" encoding="UTF-8" standalone="yes"?>
<!DOCTYPE svg PUBLIC "-//W3C//DTD SVG 1.0//EN" "http://www.w3.org/TR/2001/REC-SVG-20010904/DTD/svg10.dtd">
<svg height="726" width="726" xmlns="http://www.w3.org/2000/svg" xmlns:svg="http://www.w3.org/2000/svg" xmlns:xlink="http://www.w3.org/1999/xlink">
	<path d="M 113.696,449.504 A 73.304,73.304 90 0 0 113.696,276.496" id="arc_aa" style="fill: black; fill-opacity: 0; stroke: black; stroke-opacity: 1; stroke-width: 3" />
	<path d="M 276.496,113.696 A 73.304,73.304 90 0 0 449.504,113.696" id="arc_ab" style="fill: black; fill-opacity: 0; stroke: black; stroke-opacity: 1; stroke-width: 3" />
	<path d="M 612.304,449.504 A 73.304,73.304 90 0 1 612.304,276.496" id="arc_ac" style="fill: black; fill-opacity: 0; stroke: black; stroke-opacity: 1; stroke-width: 3" />
	<path d="M 276.496,612.304 A 73.304,73.304 90 0 1 449.504,612.304" id="arc_ad" style="fill: black; fill-opacity: 0; stroke: black; stroke-opacity: 1; stroke-width: 3" />
	<circle cx="449.504" cy="612.304" r="6.6" style="fill: black; fill-opacity: 1; stroke: black; stroke-opacity: 1; stroke-width: 3" />
	<circle cx="363" cy="363" r="264" style="fill: black; fill-opacity: 0; stroke: black; stroke-opacity: 1; stroke-width: 3" />
	<circle cx="363" cy="363" r="88" style="fill: black; fill-opacity: 0; stroke: black; stroke-opacity: 1; stroke-width: 3" />
	<circle cx="99" cy="363" r="6.6" style="fill: black; fill-opacity: 1; stroke: black; stroke-opacity: 1; stroke-width: 3" />
	<circle cx="200.2" cy="363" r="6.6" style="fill: black; fill-opacity: 1; stroke: black; stroke-opacity: 1; stroke-width: 3" />
	<circle cx="275" cy="363" r="6.6" style="fill: black; fill-opacity: 1; stroke: black; stroke-opacity: 1; stroke-width: 3" />
	<circle cx="451" cy="363" r="6.6" style="fill: black; fill-opacity: 1; stroke: black; stroke-opacity: 1; stroke-width: 3" />
	<circle cx="525.8" cy="363" r="6.6" style="fill: black; fill-opacity: 1; stroke: black; stroke-opacity: 1; stroke-width: 3" />
	<circle cx="627" cy="363" r="6.6" style="fill: black; fill-opacity: 1; stroke: black; stroke-opacity: 1; stroke-width: 3" />
	<circle cx="363" cy="363" r="6.6" style="fill: black; fill-opacity: 1; stroke: black; stroke-opacity: 1; stroke-width: 3" />
	<circle cx="363" cy="99" r="6.6" style="fill: black; fill-opacity: 1; stroke: black; stroke-opacity: 1; stroke-width: 3" />
	<circle cx="363" cy="200.2" r="6.6" style="fill: black; fill-opacity: 1; stroke: black; stroke-opacity: 1; stroke-width: 3" />
	<circle cx="363" cy="275" r="6.6" style="fill: black; fill-opacity: 1; stroke: black; stroke-opacity: 1; stroke-width: 3" />
	<circle cx="363" cy="451" r="6.6" style="fill: black; fill-opacity: 1; stroke: black; stroke-opacity: 1; stroke-width: 3" />
	<circle cx="363" cy="525.8" r="6.6" style="fill: black; fill-opacity: 1; stroke: black; stroke-opacity: 1; stroke-width: 3" />
	<circle cx="363" cy="627" r="6.6" style="fill: black; fill-opacity: 1; stroke: black; stroke-opacity: 1; stroke-width: 3" />
	<circle cx="113.696" cy="449.504" r="6.6" style="fill: black; fill-opacity: 1; stroke: black; stroke-opacity: 1; stroke-width: 3" />
	<circle cx="113.696" cy="276.496" r="6.6" style="fill: black; fill-opacity: 1; stroke: black; stroke-opacity: 1; stroke-width: 3" />
	<circle cx="612.304" cy="449.504" r="6.6" style="fill: black; fill-opacity: 1; stroke: black; stroke-opacity: 1; stroke-width: 3" />
	<circle cx="612.304" cy="276.496" r="6.6" style="fill: black; fill-opacity: 1; stroke: black; stroke-opacity: 1; stroke-width: 3" />
	<circle cx="276.496" cy="113.696" r="6.6" style="fill: black; fill-opacity: 1; stroke: black; stroke-opacity: 1; stroke-width: 3" />
	<circle cx="449.504" cy="113.696" r="6.6" style="fill: black; fill-opacity: 1; stroke: black; stroke-opacity: 1; stroke-width: 3" />
	<circle cx="276.496" cy="612.304" r="6.6" style="fill: black; fill-opacity: 1; stroke: black; stroke-opacity: 1; stroke-width: 3" />
	<polygon points="363,99 363,627 " style="fill: black; fill-opacity: 1; stroke: black; stroke-opacity: 1; stroke-width: 3" />
	<polygon points="99,363 627,363 " style="fill: black; fill-opacity: 1; stroke: black; stroke-opacity: 1; stroke-width: 3" />
	
	<text id="l1" style="fill: black; font: Serif; font-size: 33" x="245.666666666667" y="62.7">Watermelon Chess</text>
	<!--
	Generated using the Perl SVG Module V2.84
	by Ronan Oger
	Info: http://www.roitsystems.com/
	-->
</svg>