<?xml version="1.0" encoding="UTF-8" standalone="yes"?>
<!DOCTYPE svg PUBLIC "-//W3C//DTD SVG 1.0//EN" "http://www.w3.org/TR/2001/REC-SVG-20010904/DTD/svg10.dtd">
<svg height="670" width="603" xmlns="http://www.w3.org/2000/svg" xmlns:svg="http://www.w3.org/2000/svg" xmlns:xlink="http://www.w3.org/1999/xlink">
	<rect height="67" style="fill: black; fill-opacity: 1; stroke: black; stroke-opacity: 1; stroke-width: 3" width="67" x="33.5" y="33.5" />
	<rect height="67" style="fill: black; fill-opacity: 0; stroke: black; stroke-opacity: 1; stroke-width: 3" width="67" x="33.5" y="100.5" />
	<rect height="67" style="fill: black; fill-opacity: 1; stroke: black; stroke-opacity: 1; stroke-width: 3" width="67" x="33.5" y="167.5" />
	<rect height="67" style="fill: black; fill-opacity: 0; stroke: black; stroke-opacity: 1; stroke-width: 3" width="67" x="33.5" y="234.5" />
	<rect height="67" style="fill: black; fill-opacity: 1; stroke: black; stroke-opacity: 1; stroke-width: 3" width="67" x="33.5" y="301.5" />
	<rect height="67" style="fill: black; fill-opacity: 0; stroke: black; stroke-opacity: 1; stroke-width: 3" width="67" x="33.5" y="368.5" />
	<rect height="67" style="fill: black; fill-opacity: 1; stroke: black; stroke-opacity: 1; stroke-width: 3" width="67" x="33.5" y="435.5" />
	<rect height="67" style="fill: black; fill-opacity: 0; stroke: black; stroke-opacity: 1; stroke-width: 3" width="67" x="33.5" y="502.5" />
	<rect height="67" style="fill: black; fill-opacity: 0; stroke: black; stroke-opacity: 1; stroke-width: 3" width="67" x="100.5" y="33.5" />
	<rect height="67" style="fill: black; fill-opacity: 1; stroke: black; stroke-opacity: 1; stroke-width: 3" width="67" x="100.5" y="100.5" />
	<rect height="67" style="fill: black; fill-opacity: 0; stroke: black; stroke-opacity: 1; stroke-width: 3" width="67" x="100.5" y="167.5" />
	<rect height="67" style="fill: black; fill-opacity: 1; stroke: black; stroke-opacity: 1; stroke-width: 3" width="67" x="100.5" y="234.5" />
	<rect height="67" style="fill: black; fill-opacity: 0; stroke: black; stroke-opacity: 1; stroke-width: 3" width="67" x="100.5" y="301.5" />
	<rect height="67" style="fill: black; fill-opacity: 1; stroke: black; stroke-opacity: 1; stroke-width: 3" width="67" x="100.5" y="368.5" />
	<rect height="67" style="fill: black; fill-opacity: 0; stroke: black; stroke-opacity: 1; stroke-width: 3" width="67" x="100.5" y="435.5" />
	<rect height="67" style="fill: black; fill-opacity: 1; stroke: black; stroke-opacity: 1; stroke-width: 3" width="67" x="100.5" y="502.5" />
	<rect height="67" style="fill: black; fill-opacity: 1; stroke: black; stroke-opacity: 1; stroke-width: 3" width="67" x="167.5" y="33.5" />
	<rect height="67" style="fill: black; fill-opacity: 0; stroke: black; stroke-opacity: 1; stroke-width: 3" width="67" x="167.5" y="100.5" />
	<rect height="67" style="fill: black; fill-opacity: 1; stroke: black; stroke-opacity: 1; stroke-width: 3" width="67" x="167.5" y="167.5" />
	<rect height="67" style="fill: black; fill-opacity: 0; stroke: black; stroke-opacity: 1; stroke-width: 3" width="67" x="167.5" y="234.5" />
	<rect height="67" style="fill: black; fill-opacity: 1; stroke: black; stroke-opacity: 1; stroke-width: 3" width="67" x="167.5" y="301.5" />
	<rect height="67" style="fill: black; fill-opacity: 0; stroke: black; stroke-opacity: 1; stroke-width: 3" width="67" x="167.5" y="368.5" />
	<rect height="67" style="fill: black; fill-opacity: 1; stroke: black; stroke-opacity: 1; stroke-width: 3" width="67" x="167.5" y="435.5" />
	<rect height="67" style="fill: black; fill-opacity: 0; stroke: black; stroke-opacity: 1; stroke-width: 3" width="67" x="167.5" y="502.5" />
	<rect height="67" style="fill: black; fill-opacity: 0; stroke: black; stroke-opacity: 1; stroke-width: 3" width="67" x="234.5" y="33.5" />
	<rect height="67" style="fill: black; fill-opacity: 1; stroke: black; stroke-opacity: 1; stroke-width: 3" width="67" x="234.5" y="100.5" />
	<rect height="67" style="fill: black; fill-opacity: 0; stroke: black; stroke-opacity: 1; stroke-width: 3" width="67" x="234.5" y="167.5" />
	<rect height="67" style="fill: black; fill-opacity: 1; stroke: black; stroke-opacity: 1; stroke-width: 3" width="67" x="234.5" y="234.5" />
	<rect height="67" style="fill: black; fill-opacity: 0; stroke: black; stroke-opacity: 1; stroke-width: 3" width="67" x="234.5" y="301.5" />
	<rect height="67" style="fill: black; fill-opacity: 1; stroke: black; stroke-opacity: 1; stroke-width: 3" width="67" x="234.5" y="368.5" />
	<rect height="67" style="fill: black; fill-opacity: 0; stroke: black; stroke-opacity: 1; stroke-width: 3" width="67" x="234.5" y="435.5" />
	<rect height="67" style="fill: black; fill-opacity: 1; stroke: black; stroke-opacity: 1; stroke-width: 3" width="67" x="234.5" y="502.5" />
	<rect height="67" style="fill: black; fill-opacity: 1; stroke: black; stroke-opacity: 1; stroke-width: 3" width="67" x="301.5" y="33.5" />
	<rect height="67" style="fill: black; fill-opacity: 0; stroke: black; stroke-opacity: 1; stroke-width: 3" width="67" x="301.5" y="100.5" />
	<rect height="67" style="fill: black; fill-opacity: 1; stroke: black; stroke-opacity: 1; stroke-width: 3" width="67" x="301.5" y="167.5" />
	<rect height="67" style="fill: black; fill-opacity: 0; stroke: black; stroke-opacity: 1; stroke-width: 3" width="67" x="301.5" y="234.5" />
	<rect height="67" style="fill: black; fill-opacity: 1; stroke: black; stroke-opacity: 1; stroke-width: 3" width="67" x="301.5" y="301.5" />
	<rect height="67" style="fill: black; fill-opacity: 0; stroke: black; stroke-opacity: 1; stroke-width: 3" width="67" x="301.5" y="368.5" />
	<rect height="67" style="fill: black; fill-opacity: 1; stroke: black; stroke-opacity: 1; stroke-width: 3" width="67" x="301.5" y="435.5" />
	<rect height="67" style="fill: black; fill-opacity: 0; stroke: black; stroke-opacity: 1; stroke-width: 3" width="67" x="301.5" y="502.5" />
	<rect height="67" style="fill: black; fill-opacity: 0; stroke: black; stroke-opacity: 1; stroke-width: 3" width="67" x="368.5" y="33.5" />
	<rect height="67" style="fill: black; fill-opacity: 1; stroke: black; stroke-opacity: 1; stroke-width: 3" width="67" x="368.5" y="100.5" />
	<rect height="67" style="fill: black; fill-opacity: 0; stroke: black; stroke-opacity: 1; stroke-width: 3" width="67" x="368.5" y="167.5" />
	<rect height="67" style="fill: black; fill-opacity: 1; stroke: black; stroke-opacity: 1; stroke-width: 3" width="67" x="368.5" y="234.5" />
	<rect height="67" style="fill: black; fill-opacity: 0; stroke: black; stroke-opacity: 1; stroke-width: 3" width="67" x="368.5" y="301.5" />
	<rect height="67" style="fill: black; fill-opacity: 1; stroke: black; stroke-opacity: 1; stroke-width: 3" width="67" x="368.5" y="368.5" />
	<rect height="67" style="fill: black; fill-opacity: 0; stroke: black; stroke-opacity: 1; stroke-width: 3" width="67" x="368.5" y="435.5" />
	<rect height="67" style="fill: black; fill-opacity: 1; stroke: black; stroke-opacity: 1; stroke-width: 3" width="67" x="368.5" y="502.5" />
	<rect height="67" style="fill: black; fill-opacity: 1; stroke: black; stroke-opacity: 1; stroke-width: 3" width="67" x="435.5" y="33.5" />
	<rect height="67" style="fill: black; fill-opacity: 0; stroke: black; stroke-opacity: 1; stroke-width: 3" width="67" x="435.5" y="100.5" />
	<rect height="67" style="fill: black; fill-opacity: 1; stroke: black; stroke-opacity: 1; stroke-width: 3" width="67" x="435.5" y="167.5" />
	<rect height="67" style="fill: black; fill-opacity: 0; stroke: black; stroke-opacity: 1; stroke-width: 3" width="67" x="435.5" y="234.5" />
	<rect height="67" style="fill: black; fill-opacity: 1; stroke: black; stroke-opacity: 1; stroke-width: 3" width="67" x="435.5" y="301.5" />
	<rect height="67" style="fill: black; fill-opacity: 0; stroke: black; stroke-opacity: 1; stroke-width: 3" width="67" x="435.5" y="368.5" />
	<rect height="67" style="fill: black; fill-opacity: 1; stroke: black; stroke-opacity: 1; stroke-width: 3" width="67" x="435.5" y="435.5" />
	<rect height="67" style="fill: black; fill-opacity: 0; stroke: black; stroke-opacity: 1; stroke-width: 3" width="67" x="435.5" y="502.5" />
	<rect height="67" style="fill: black; fill-opacity: 0; stroke: black; stroke-opacity: 1; stroke-width: 3" width="67" x="502.5" y="33.5" />
	<rect height="67" style="fill: black; fill-opacity: 1; stroke: black; stroke-opacity: 1; stroke-width: 3" width="67" x="502.5" y="100.5" />
	<rect height="67" style="fill: black; fill-opacity: 0; stroke: black; stroke-opacity: 1; stroke-width: 3" width="67" x="502.5" y="167.5" />
	<rect height="67" style="fill: black; fill-opacity: 1; stroke: black; stroke-opacity: 1; stroke-width: 3" width="67" x="502.5" y="234.5" />
	<rect height="67" style="fill: black; fill-opacity: 0; stroke: black; stroke-opacity: 1; stroke-width: 3" width="67" x="502.5" y="301.5" />
	<rect height="67" style="fill: black; fill-opacity: 1; stroke: black; stroke-opacity: 1; stroke-width: 3" width="67" x="502.5" y="368.5" />
	<rect height="67" style="fill: black; fill-opacity: 0; stroke: black; stroke-opacity: 1; stroke-width: 3" width="67" x="502.5" y="435.5" />
	<rect height="67" style="fill: black; fill-opacity: 1; stroke: black; stroke-opacity: 1; stroke-width: 3" width="67" x="502.5" y="502.5" />
	<rect height="536" style="fill: black; fill-opacity: 0; stroke: black; stroke-opacity: 1; stroke-width: 3" width="536" x="33.5" y="33.5" />
	<text id="l1" style="fill: black; font: Serif; font-size: 32" x="130.277777777778" y="636.5">Square Game Board 8 x 8</text>
	<!--
	Generated using the Perl SVG Module V2.84
	by Ronan Oger
	Info: http://www.roitsystems.com/
	-->
</svg>