<?xml version="1.0" encoding="UTF-8" standalone="yes"?>
<!DOCTYPE svg PUBLIC "-//W3C//DTD SVG 1.0//EN" "http://www.w3.org/TR/2001/REC-SVG-20010904/DTD/svg10.dtd">
<svg height="726" width="726" xmlns="http://www.w3.org/2000/svg" xmlns:svg="http://www.w3.org/2000/svg" xmlns:xlink="http://www.w3.org/1999/xlink">
	<path d="M 204.6,180.095434720727 204.6,134.369293400908 244.2,111.506222740999 283.8,134.369293400908 283.8,180.095434720727 244.2,202.958505380636 204.6,180.095434720727 Z" id="hex_100" style="fill: white; fill-opacity: 1; stroke: black; stroke-opacity: 1; stroke-width: 3" />
	<path d="M 165,248.684646700454 165,202.958505380636 204.6,180.095434720727 244.2,202.958505380636 244.2,248.684646700454 204.6,271.547717360363 165,248.684646700454 Z" id="hex_101" style="fill: white; fill-opacity: 1; stroke: black; stroke-opacity: 1; stroke-width: 3" />
	<path d="M 125.4,317.273858680182 125.4,271.547717360363 165,248.684646700454 204.6,271.547717360363 204.6,317.273858680182 165,340.136929340091 125.4,317.273858680182 Z" id="hex_102" style="fill: white; fill-opacity: 1; stroke: black; stroke-opacity: 1; stroke-width: 3" />
	<path d="M 85.8,385.863070659909 85.8,340.136929340091 125.4,317.273858680182 165,340.136929340091 165,385.863070659909 125.4,408.726141319818 85.8,385.863070659909 Z" id="hex_103" style="fill: white; fill-opacity: 1; stroke: black; stroke-opacity: 1; stroke-width: 3" />
	<path d="M 125.4,454.452282639637 125.4,408.726141319818 165,385.863070659909 204.6,408.726141319818 204.6,454.452282639637 165,477.315353299546 125.4,454.452282639637 Z" id="hex_104" style="fill: white; fill-opacity: 1; stroke: black; stroke-opacity: 1; stroke-width: 3" />
	<path d="M 165,523.041494619364 165,477.315353299546 204.6,454.452282639637 244.2,477.315353299546 244.2,523.041494619364 204.6,545.904565279273 165,523.041494619364 Z" id="hex_105" style="fill: white; fill-opacity: 1; stroke: black; stroke-opacity: 1; stroke-width: 3" />
	<path d="M 204.6,591.630706599092 204.6,545.904565279273 244.2,523.041494619364 283.8,545.904565279273 283.8,591.630706599092 244.2,614.493777259001 204.6,591.630706599092 Z" id="hex_106" style="fill: white; fill-opacity: 1; stroke: black; stroke-opacity: 1; stroke-width: 3" />
	<path d="M 283.8,591.630706599092 283.8,545.904565279273 323.4,523.041494619364 363,545.904565279273 363,591.630706599092 323.4,614.493777259001 283.8,591.630706599092 Z" id="hex_107" style="fill: white; fill-opacity: 1; stroke: black; stroke-opacity: 1; stroke-width: 3" />
	<path d="M 363,591.630706599092 363,545.904565279273 402.6,523.041494619364 442.2,545.904565279273 442.2,591.630706599092 402.6,614.493777259001 363,591.630706599092 Z" id="hex_108" style="fill: white; fill-opacity: 1; stroke: black; stroke-opacity: 1; stroke-width: 3" />
	<path d="M 442.2,591.630706599092 442.2,545.904565279273 481.8,523.041494619364 521.4,545.904565279273 521.4,591.630706599092 481.8,614.493777259001 442.2,591.630706599092 Z" id="hex_109" style="fill: white; fill-opacity: 1; stroke: black; stroke-opacity: 1; stroke-width: 3" />
	<path d="M 481.8,523.041494619364 481.8,477.315353299546 521.4,454.452282639636 561,477.315353299546 561,523.041494619364 521.4,545.904565279273 481.8,523.041494619364 Z" id="hex_110" style="fill: white; fill-opacity: 1; stroke: black; stroke-opacity: 1; stroke-width: 3" />
	<path d="M 521.4,454.452282639636 521.4,408.726141319818 561,385.863070659909 600.6,408.726141319818 600.6,454.452282639636 561,477.315353299546 521.4,454.452282639636 Z" id="hex_111" style="fill: white; fill-opacity: 1; stroke: black; stroke-opacity: 1; stroke-width: 3" />
	<path d="M 561,385.863070659909 561,340.136929340091 600.6,317.273858680181 640.2,340.136929340091 640.2,385.863070659909 600.6,408.726141319818 561,385.863070659909 Z" id="hex_112" style="fill: white; fill-opacity: 1; stroke: black; stroke-opacity: 1; stroke-width: 3" />
	<path d="M 521.4,317.273858680181 521.4,271.547717360363 561,248.684646700454 600.6,271.547717360363 600.6,317.273858680181 561,340.136929340091 521.4,317.273858680181 Z" id="hex_113" style="fill: white; fill-opacity: 1; stroke: black; stroke-opacity: 1; stroke-width: 3" />
	<path d="M 481.8,248.684646700454 481.8,202.958505380636 521.4,180.095434720726 561,202.958505380636 561,248.684646700454 521.4,271.547717360363 481.8,248.684646700454 Z" id="hex_114" style="fill: white; fill-opacity: 1; stroke: black; stroke-opacity: 1; stroke-width: 3" />
	<path d="M 442.2,180.095434720726 442.2,134.369293400908 481.8,111.506222740999 521.4,134.369293400908 521.4,180.095434720726 481.8,202.958505380636 442.2,180.095434720726 Z" id="hex_115" style="fill: white; fill-opacity: 1; stroke: black; stroke-opacity: 1; stroke-width: 3" />
	<path d="M 363,180.095434720726 363,134.369293400908 402.6,111.506222740999 442.2,134.369293400908 442.2,180.095434720726 402.6,202.958505380636 363,180.095434720726 Z" id="hex_116" style="fill: white; fill-opacity: 1; stroke: black; stroke-opacity: 1; stroke-width: 3" />
	<path d="M 283.8,180.095434720726 283.8,134.369293400908 323.4,111.506222740999 363,134.369293400908 363,180.095434720726 323.4,202.958505380636 283.8,180.095434720726 Z" id="hex_117" style="fill: white; fill-opacity: 1; stroke: black; stroke-opacity: 1; stroke-width: 3" />
	<path d="M 244.2,248.684646700454 244.2,202.958505380636 283.8,180.095434720726 323.4,202.958505380636 323.4,248.684646700454 283.8,271.547717360363 244.2,248.684646700454 Z" id="hex_118" style="fill: white; fill-opacity: 1; stroke: black; stroke-opacity: 1; stroke-width: 3" />
	<path d="M 204.6,317.273858680181 204.6,271.547717360363 244.2,248.684646700454 283.8,271.547717360363 283.8,317.273858680181 244.2,340.136929340091 204.6,317.273858680181 Z" id="hex_119" style="fill: white; fill-opacity: 1; stroke: black; stroke-opacity: 1; stroke-width: 3" />
	<path d="M 165,385.863070659909 165,340.136929340091 204.6,317.273858680181 244.2,340.136929340091 244.2,385.863070659909 204.6,408.726141319818 165,385.863070659909 Z" id="hex_120" style="fill: white; fill-opacity: 1; stroke: black; stroke-opacity: 1; stroke-width: 3" />
	<path d="M 204.6,454.452282639636 204.6,408.726141319818 244.2,385.863070659909 283.8,408.726141319818 283.8,454.452282639636 244.2,477.315353299546 204.6,454.452282639636 Z" id="hex_121" style="fill: white; fill-opacity: 1; stroke: black; stroke-opacity: 1; stroke-width: 3" />
	<path d="M 244.2,523.041494619364 244.2,477.315353299546 283.8,454.452282639636 323.4,477.315353299546 323.4,523.041494619364 283.8,545.904565279273 244.2,523.041494619364 Z" id="hex_122" style="fill: white; fill-opacity: 1; stroke: black; stroke-opacity: 1; stroke-width: 3" />
	<path d="M 323.4,523.041494619364 323.4,477.315353299546 363,454.452282639636 402.6,477.315353299546 402.6,523.041494619364 363,545.904565279273 323.4,523.041494619364 Z" id="hex_123" style="fill: white; fill-opacity: 1; stroke: black; stroke-opacity: 1; stroke-width: 3" />
	<path d="M 402.6,523.041494619364 402.6,477.315353299546 442.2,454.452282639636 481.8,477.315353299546 481.8,523.041494619364 442.2,545.904565279273 402.6,523.041494619364 Z" id="hex_124" style="fill: white; fill-opacity: 1; stroke: black; stroke-opacity: 1; stroke-width: 3" />
	<path d="M 442.2,454.452282639636 442.2,408.726141319818 481.8,385.863070659909 521.4,408.726141319818 521.4,454.452282639636 481.8,477.315353299546 442.2,454.452282639636 Z" id="hex_125" style="fill: white; fill-opacity: 1; stroke: black; stroke-opacity: 1; stroke-width: 3" />
	<path d="M 481.8,385.863070659909 481.8,340.136929340091 521.4,317.273858680181 561,340.136929340091 561,385.863070659909 521.4,408.726141319818 481.8,385.863070659909 Z" id="hex_126" style="fill: white; fill-opacity: 1; stroke: black; stroke-opacity: 1; stroke-width: 3" />
	<path d="M 442.2,317.273858680181 442.2,271.547717360363 481.8,248.684646700454 521.4,271.547717360363 521.4,317.273858680181 481.8,340.136929340091 442.2,317.273858680181 Z" id="hex_127" style="fill: white; fill-opacity: 1; stroke: black; stroke-opacity: 1; stroke-width: 3" />
	<path d="M 402.6,248.684646700454 402.6,202.958505380636 442.2,180.095434720726 481.8,202.958505380636 481.8,248.684646700454 442.2,271.547717360363 402.6,248.684646700454 Z" id="hex_128" style="fill: white; fill-opacity: 1; stroke: black; stroke-opacity: 1; stroke-width: 3" />
	<path d="M 323.4,248.684646700454 323.4,202.958505380636 363,180.095434720726 402.6,202.958505380636 402.6,248.684646700454 363,271.547717360363 323.4,248.684646700454 Z" id="hex_129" style="fill: white; fill-opacity: 1; stroke: black; stroke-opacity: 1; stroke-width: 3" />
	<path d="M 283.8,317.273858680181 283.8,271.547717360363 323.4,248.684646700454 363,271.547717360363 363,317.273858680181 323.4,340.136929340091 283.8,317.273858680181 Z" id="hex_130" style="fill: white; fill-opacity: 1; stroke: black; stroke-opacity: 1; stroke-width: 3" />
	<path d="M 244.2,385.863070659909 244.2,340.136929340091 283.8,317.273858680181 323.4,340.136929340091 323.4,385.863070659909 283.8,408.726141319818 244.2,385.863070659909 Z" id="hex_131" style="fill: white; fill-opacity: 1; stroke: black; stroke-opacity: 1; stroke-width: 3" />
	<path d="M 283.8,454.452282639636 283.8,408.726141319818 323.4,385.863070659909 363,408.726141319818 363,454.452282639636 323.4,477.315353299546 283.8,454.452282639636 Z" id="hex_132" style="fill: white; fill-opacity: 1; stroke: black; stroke-opacity: 1; stroke-width: 3" />
	<path d="M 363,454.452282639636 363,408.726141319818 402.6,385.863070659909 442.2,408.726141319818 442.2,454.452282639636 402.6,477.315353299546 363,454.452282639636 Z" id="hex_133" style="fill: white; fill-opacity: 1; stroke: black; stroke-opacity: 1; stroke-width: 3" />
	<path d="M 402.6,385.863070659909 402.6,340.136929340091 442.2,317.273858680181 481.8,340.136929340091 481.8,385.863070659909 442.2,408.726141319818 402.6,385.863070659909 Z" id="hex_134" style="fill: white; fill-opacity: 1; stroke: black; stroke-opacity: 1; stroke-width: 3" />
	<path d="M 363,317.273858680181 363,271.547717360363 402.6,248.684646700454 442.2,271.547717360363 442.2,317.273858680181 402.6,340.136929340091 363,317.273858680181 Z" id="hex_135" style="fill: white; fill-opacity: 1; stroke: black; stroke-opacity: 1; stroke-width: 3" />
	<path d="M 323.4,385.863070659909 323.4,340.136929340091 363,317.273858680181 402.6,340.136929340091 402.6,385.863070659909 363,408.726141319818 323.4,385.863070659909 Z" id="hex_136" style="fill: white; fill-opacity: 1; stroke: black; stroke-opacity: 1; stroke-width: 3" />
	<!--<rect height="726" style="fill: black; fill-opacity: 0; stroke: black; stroke-opacity: 1; stroke-width: 3" width="726" x="0" y="0" />-->
	<text id="l1" style="fill: black; font: Serif; font-size: 33" x="238.333333333333" y="62.7">4x4 Hex (Annuvin)</text>
	<!--
	Generated using the Perl SVG Module V2.84
	by Ronan Oger
	Info: http://www.roitsystems.com/
	-->
</svg>