<?xml version="1.0" encoding="UTF-8" standalone="yes"?>
<!DOCTYPE svg PUBLIC "-//W3C//DTD SVG 1.0//EN" "http://www.w3.org/TR/2001/REC-SVG-20010904/DTD/svg10.dtd">
<svg height="726" width="726" xmlns="http://www.w3.org/2000/svg" xmlns:svg="http://www.w3.org/2000/svg" xmlns:xlink="http://www.w3.org/1999/xlink">
	<path d="M 193.285714285714,134.369293400908 193.285714285714,101.707763886752 221.571428571429,85.3769991296742 249.857142857143,101.707763886752 249.857142857143,134.369293400908 221.571428571429,150.700058157986 193.285714285714,134.369293400908 Z" id="hex_100" style="fill: white; fill-opacity: 1; stroke: black; stroke-opacity: 1; stroke-width: 3" />
	<path d="M 165,183.361587672142 165,150.700058157986 193.285714285714,134.369293400908 221.571428571429,150.700058157986 221.571428571429,183.361587672142 193.285714285714,199.69235242922 165,183.361587672142 Z" id="hex_101" style="fill: white; fill-opacity: 1; stroke: black; stroke-opacity: 1; stroke-width: 3" />
	<path d="M 136.714285714286,232.353881943376 136.714285714286,199.69235242922 165,183.361587672142 193.285714285714,199.69235242922 193.285714285714,232.353881943376 165,248.684646700454 136.714285714286,232.353881943376 Z" id="hex_102" style="fill: white; fill-opacity: 1; stroke: black; stroke-opacity: 1; stroke-width: 3" />
	<path d="M 108.428571428571,281.34617621461 108.428571428571,248.684646700454 136.714285714286,232.353881943376 165,248.684646700454 165,281.34617621461 136.714285714286,297.676940971688 108.428571428571,281.34617621461 Z" id="hex_103" style="fill: white; fill-opacity: 1; stroke: black; stroke-opacity: 1; stroke-width: 3" />
	<path d="M 80.1428571428572,330.338470485844 80.1428571428572,297.676940971688 108.428571428571,281.34617621461 136.714285714286,297.676940971688 136.714285714286,330.338470485844 108.428571428571,346.669235242922 80.1428571428572,330.338470485844 Z" id="hex_104" style="fill: white; fill-opacity: 1; stroke: black; stroke-opacity: 1; stroke-width: 3" />
	<path d="M 51.8571428571429,379.330764757078 51.8571428571429,346.669235242922 80.1428571428572,330.338470485844 108.428571428571,346.669235242922 108.428571428571,379.330764757078 80.1428571428572,395.661529514156 51.8571428571429,379.330764757078 Z" id="hex_105" style="fill: white; fill-opacity: 1; stroke: black; stroke-opacity: 1; stroke-width: 3" />
	<path d="M 80.1428571428572,428.323059028312 80.1428571428572,395.661529514156 108.428571428571,379.330764757078 136.714285714286,395.661529514156 136.714285714286,428.323059028312 108.428571428571,444.65382378539 80.1428571428572,428.323059028312 Z" id="hex_106" style="fill: white; fill-opacity: 1; stroke: black; stroke-opacity: 1; stroke-width: 3" />
	<path d="M 108.428571428571,477.315353299546 108.428571428571,444.65382378539 136.714285714286,428.323059028312 165,444.65382378539 165,477.315353299546 136.714285714286,493.646118056624 108.428571428571,477.315353299546 Z" id="hex_107" style="fill: white; fill-opacity: 1; stroke: black; stroke-opacity: 1; stroke-width: 3" />
	<path d="M 136.714285714286,526.30764757078 136.714285714286,493.646118056624 165,477.315353299546 193.285714285714,493.646118056624 193.285714285714,526.30764757078 165,542.638412327858 136.714285714286,526.30764757078 Z" id="hex_108" style="fill: white; fill-opacity: 1; stroke: black; stroke-opacity: 1; stroke-width: 3" />
	<path d="M 165,575.299941842014 165,542.638412327858 193.285714285714,526.30764757078 221.571428571429,542.638412327858 221.571428571429,575.299941842014 193.285714285714,591.630706599092 165,575.299941842014 Z" id="hex_109" style="fill: white; fill-opacity: 1; stroke: black; stroke-opacity: 1; stroke-width: 3" />
	<path d="M 193.285714285714,624.292236113248 193.285714285714,591.630706599092 221.571428571429,575.299941842014 249.857142857143,591.630706599092 249.857142857143,624.292236113248 221.571428571429,640.623000870326 193.285714285714,624.292236113248 Z" id="hex_110" style="fill: white; fill-opacity: 1; stroke: black; stroke-opacity: 1; stroke-width: 3" />
	<path d="M 249.857142857143,624.292236113248 249.857142857143,591.630706599092 278.142857142857,575.299941842014 306.428571428571,591.630706599092 306.428571428571,624.292236113248 278.142857142857,640.623000870326 249.857142857143,624.292236113248 Z" id="hex_111" style="fill: white; fill-opacity: 1; stroke: black; stroke-opacity: 1; stroke-width: 3" />
	<path d="M 306.428571428571,624.292236113248 306.428571428571,591.630706599092 334.714285714286,575.299941842014 363,591.630706599092 363,624.292236113248 334.714285714286,640.623000870326 306.428571428571,624.292236113248 Z" id="hex_112" style="fill: white; fill-opacity: 1; stroke: black; stroke-opacity: 1; stroke-width: 3" />
	<path d="M 363,624.292236113248 363,591.630706599092 391.285714285714,575.299941842014 419.571428571429,591.630706599092 419.571428571429,624.292236113248 391.285714285714,640.623000870326 363,624.292236113248 Z" id="hex_113" style="fill: white; fill-opacity: 1; stroke: black; stroke-opacity: 1; stroke-width: 3" />
	<path d="M 419.571428571429,624.292236113248 419.571428571429,591.630706599092 447.857142857143,575.299941842014 476.142857142857,591.630706599092 476.142857142857,624.292236113248 447.857142857143,640.623000870326 419.571428571429,624.292236113248 Z" id="hex_114" style="fill: white; fill-opacity: 1; stroke: black; stroke-opacity: 1; stroke-width: 3" />
	<path d="M 476.142857142857,624.292236113248 476.142857142857,591.630706599092 504.428571428571,575.299941842014 532.714285714286,591.630706599092 532.714285714286,624.292236113248 504.428571428571,640.623000870326 476.142857142857,624.292236113248 Z" id="hex_115" style="fill: white; fill-opacity: 1; stroke: black; stroke-opacity: 1; stroke-width: 3" />
	<path d="M 504.428571428571,575.299941842014 504.428571428571,542.638412327858 532.714285714286,526.30764757078 561,542.638412327858 561,575.299941842014 532.714285714286,591.630706599092 504.428571428571,575.299941842014 Z" id="hex_116" style="fill: white; fill-opacity: 1; stroke: black; stroke-opacity: 1; stroke-width: 3" />
	<path d="M 532.714285714286,526.30764757078 532.714285714286,493.646118056624 561,477.315353299546 589.285714285714,493.646118056624 589.285714285714,526.30764757078 561,542.638412327858 532.714285714286,526.30764757078 Z" id="hex_117" style="fill: white; fill-opacity: 1; stroke: black; stroke-opacity: 1; stroke-width: 3" />
	<path d="M 561,477.315353299546 561,444.65382378539 589.285714285714,428.323059028312 617.571428571429,444.65382378539 617.571428571429,477.315353299546 589.285714285714,493.646118056624 561,477.315353299546 Z" id="hex_118" style="fill: white; fill-opacity: 1; stroke: black; stroke-opacity: 1; stroke-width: 3" />
	<path d="M 589.285714285714,428.323059028312 589.285714285714,395.661529514156 617.571428571429,379.330764757078 645.857142857143,395.661529514156 645.857142857143,428.323059028312 617.571428571429,444.65382378539 589.285714285714,428.323059028312 Z" id="hex_119" style="fill: white; fill-opacity: 1; stroke: black; stroke-opacity: 1; stroke-width: 3" />
	<path d="M 617.571428571429,379.330764757078 617.571428571429,346.669235242922 645.857142857143,330.338470485844 674.142857142857,346.669235242922 674.142857142857,379.330764757078 645.857142857143,395.661529514156 617.571428571429,379.330764757078 Z" id="hex_120" style="fill: white; fill-opacity: 1; stroke: black; stroke-opacity: 1; stroke-width: 3" />
	<path d="M 589.285714285714,330.338470485844 589.285714285714,297.676940971688 617.571428571429,281.34617621461 645.857142857143,297.676940971688 645.857142857143,330.338470485844 617.571428571429,346.669235242922 589.285714285714,330.338470485844 Z" id="hex_121" style="fill: white; fill-opacity: 1; stroke: black; stroke-opacity: 1; stroke-width: 3" />
	<path d="M 561,281.34617621461 561,248.684646700454 589.285714285714,232.353881943376 617.571428571429,248.684646700454 617.571428571429,281.34617621461 589.285714285714,297.676940971688 561,281.34617621461 Z" id="hex_122" style="fill: white; fill-opacity: 1; stroke: black; stroke-opacity: 1; stroke-width: 3" />
	<path d="M 532.714285714286,232.353881943376 532.714285714286,199.69235242922 561,183.361587672142 589.285714285714,199.69235242922 589.285714285714,232.353881943376 561,248.684646700454 532.714285714286,232.353881943376 Z" id="hex_123" style="fill: white; fill-opacity: 1; stroke: black; stroke-opacity: 1; stroke-width: 3" />
	<path d="M 504.428571428571,183.361587672142 504.428571428571,150.700058157986 532.714285714286,134.369293400908 561,150.700058157986 561,183.361587672142 532.714285714286,199.69235242922 504.428571428571,183.361587672142 Z" id="hex_124" style="fill: white; fill-opacity: 1; stroke: black; stroke-opacity: 1; stroke-width: 3" />
	<path d="M 476.142857142857,134.369293400908 476.142857142857,101.707763886752 504.428571428571,85.3769991296742 532.714285714286,101.707763886752 532.714285714286,134.369293400908 504.428571428571,150.700058157986 476.142857142857,134.369293400908 Z" id="hex_125" style="fill: white; fill-opacity: 1; stroke: black; stroke-opacity: 1; stroke-width: 3" />
	<path d="M 419.571428571429,134.369293400908 419.571428571429,101.707763886752 447.857142857143,85.3769991296742 476.142857142857,101.707763886752 476.142857142857,134.369293400908 447.857142857143,150.700058157986 419.571428571429,134.369293400908 Z" id="hex_126" style="fill: white; fill-opacity: 1; stroke: black; stroke-opacity: 1; stroke-width: 3" />
	<path d="M 363,134.369293400908 363,101.707763886752 391.285714285714,85.3769991296742 419.571428571429,101.707763886752 419.571428571429,134.369293400908 391.285714285714,150.700058157986 363,134.369293400908 Z" id="hex_127" style="fill: white; fill-opacity: 1; stroke: black; stroke-opacity: 1; stroke-width: 3" />
	<path d="M 306.428571428571,134.369293400908 306.428571428571,101.707763886752 334.714285714286,85.3769991296742 363,101.707763886752 363,134.369293400908 334.714285714286,150.700058157986 306.428571428571,134.369293400908 Z" id="hex_128" style="fill: white; fill-opacity: 1; stroke: black; stroke-opacity: 1; stroke-width: 3" />
	<path d="M 249.857142857143,134.369293400908 249.857142857143,101.707763886752 278.142857142857,85.3769991296742 306.428571428571,101.707763886752 306.428571428571,134.369293400908 278.142857142857,150.700058157986 249.857142857143,134.369293400908 Z" id="hex_129" style="fill: white; fill-opacity: 1; stroke: black; stroke-opacity: 1; stroke-width: 3" />
	<path d="M 221.571428571429,183.361587672142 221.571428571429,150.700058157986 249.857142857143,134.369293400908 278.142857142857,150.700058157986 278.142857142857,183.361587672142 249.857142857143,199.69235242922 221.571428571429,183.361587672142 Z" id="hex_130" style="fill: grey; fill-opacity: 1; stroke: black; stroke-opacity: 1; stroke-width: 3" />
	<path d="M 193.285714285714,232.353881943376 193.285714285714,199.69235242922 221.571428571429,183.361587672142 249.857142857143,199.69235242922 249.857142857143,232.353881943376 221.571428571429,248.684646700454 193.285714285714,232.353881943376 Z" id="hex_131" style="fill: grey; fill-opacity: 1; stroke: black; stroke-opacity: 1; stroke-width: 3" />
	<path d="M 165,281.34617621461 165,248.684646700454 193.285714285714,232.353881943376 221.571428571429,248.684646700454 221.571428571429,281.34617621461 193.285714285714,297.676940971688 165,281.34617621461 Z" id="hex_132" style="fill: grey; fill-opacity: 1; stroke: black; stroke-opacity: 1; stroke-width: 3" />
	<path d="M 136.714285714286,330.338470485844 136.714285714286,297.676940971688 165,281.34617621461 193.285714285714,297.676940971688 193.285714285714,330.338470485844 165,346.669235242922 136.714285714286,330.338470485844 Z" id="hex_133" style="fill: grey; fill-opacity: 1; stroke: black; stroke-opacity: 1; stroke-width: 3" />
	<path d="M 108.428571428572,379.330764757078 108.428571428572,346.669235242922 136.714285714286,330.338470485844 165,346.669235242922 165,379.330764757078 136.714285714286,395.661529514156 108.428571428572,379.330764757078 Z" id="hex_134" style="fill: grey; fill-opacity: 1; stroke: black; stroke-opacity: 1; stroke-width: 3" />
	<path d="M 136.714285714286,428.323059028312 136.714285714286,395.661529514156 165,379.330764757078 193.285714285714,395.661529514156 193.285714285714,428.323059028312 165,444.65382378539 136.714285714286,428.323059028312 Z" id="hex_135" style="fill: grey; fill-opacity: 1; stroke: black; stroke-opacity: 1; stroke-width: 3" />
	<path d="M 165,477.315353299546 165,444.65382378539 193.285714285714,428.323059028312 221.571428571429,444.65382378539 221.571428571429,477.315353299546 193.285714285714,493.646118056624 165,477.315353299546 Z" id="hex_136" style="fill: grey; fill-opacity: 1; stroke: black; stroke-opacity: 1; stroke-width: 3" />
	<path d="M 193.285714285714,526.30764757078 193.285714285714,493.646118056624 221.571428571429,477.315353299546 249.857142857143,493.646118056624 249.857142857143,526.30764757078 221.571428571429,542.638412327858 193.285714285714,526.30764757078 Z" id="hex_137" style="fill: grey; fill-opacity: 1; stroke: black; stroke-opacity: 1; stroke-width: 3" />
	<path d="M 221.571428571429,575.299941842014 221.571428571429,542.638412327858 249.857142857143,526.30764757078 278.142857142857,542.638412327858 278.142857142857,575.299941842014 249.857142857143,591.630706599092 221.571428571429,575.299941842014 Z" id="hex_138" style="fill: grey; fill-opacity: 1; stroke: black; stroke-opacity: 1; stroke-width: 3" />
	<path d="M 278.142857142857,575.299941842014 278.142857142857,542.638412327858 306.428571428571,526.30764757078 334.714285714286,542.638412327858 334.714285714286,575.299941842014 306.428571428571,591.630706599092 278.142857142857,575.299941842014 Z" id="hex_139" style="fill: grey; fill-opacity: 1; stroke: black; stroke-opacity: 1; stroke-width: 3" />
	<path d="M 334.714285714286,575.299941842014 334.714285714286,542.638412327858 363,526.30764757078 391.285714285714,542.638412327858 391.285714285714,575.299941842014 363,591.630706599092 334.714285714286,575.299941842014 Z" id="hex_140" style="fill: grey; fill-opacity: 1; stroke: black; stroke-opacity: 1; stroke-width: 3" />
	<path d="M 391.285714285714,575.299941842014 391.285714285714,542.638412327858 419.571428571429,526.30764757078 447.857142857143,542.638412327858 447.857142857143,575.299941842014 419.571428571429,591.630706599092 391.285714285714,575.299941842014 Z" id="hex_141" style="fill: grey; fill-opacity: 1; stroke: black; stroke-opacity: 1; stroke-width: 3" />
	<path d="M 447.857142857143,575.299941842014 447.857142857143,542.638412327858 476.142857142857,526.30764757078 504.428571428571,542.638412327858 504.428571428571,575.299941842014 476.142857142857,591.630706599092 447.857142857143,575.299941842014 Z" id="hex_142" style="fill: grey; fill-opacity: 1; stroke: black; stroke-opacity: 1; stroke-width: 3" />
	<path d="M 476.142857142857,526.30764757078 476.142857142857,493.646118056624 504.428571428571,477.315353299546 532.714285714286,493.646118056624 532.714285714286,526.30764757078 504.428571428571,542.638412327858 476.142857142857,526.30764757078 Z" id="hex_143" style="fill: grey; fill-opacity: 1; stroke: black; stroke-opacity: 1; stroke-width: 3" />
	<path d="M 504.428571428571,477.315353299546 504.428571428571,444.65382378539 532.714285714286,428.323059028312 561,444.65382378539 561,477.315353299546 532.714285714286,493.646118056624 504.428571428571,477.315353299546 Z" id="hex_144" style="fill: grey; fill-opacity: 1; stroke: black; stroke-opacity: 1; stroke-width: 3" />
	<path d="M 532.714285714286,428.323059028312 532.714285714286,395.661529514156 561,379.330764757078 589.285714285714,395.661529514156 589.285714285714,428.323059028312 561,444.65382378539 532.714285714286,428.323059028312 Z" id="hex_145" style="fill: grey; fill-opacity: 1; stroke: black; stroke-opacity: 1; stroke-width: 3" />
	<path d="M 561,379.330764757078 561,346.669235242922 589.285714285714,330.338470485844 617.571428571429,346.669235242922 617.571428571429,379.330764757078 589.285714285714,395.661529514156 561,379.330764757078 Z" id="hex_146" style="fill: grey; fill-opacity: 1; stroke: black; stroke-opacity: 1; stroke-width: 3" />
	<path d="M 532.714285714286,330.338470485844 532.714285714286,297.676940971688 561,281.34617621461 589.285714285714,297.676940971688 589.285714285714,330.338470485844 561,346.669235242922 532.714285714286,330.338470485844 Z" id="hex_147" style="fill: grey; fill-opacity: 1; stroke: black; stroke-opacity: 1; stroke-width: 3" />
	<path d="M 504.428571428571,281.34617621461 504.428571428571,248.684646700454 532.714285714286,232.353881943376 561,248.684646700454 561,281.34617621461 532.714285714286,297.676940971688 504.428571428571,281.34617621461 Z" id="hex_148" style="fill: grey; fill-opacity: 1; stroke: black; stroke-opacity: 1; stroke-width: 3" />
	<path d="M 476.142857142857,232.353881943376 476.142857142857,199.69235242922 504.428571428571,183.361587672142 532.714285714286,199.69235242922 532.714285714286,232.353881943376 504.428571428571,248.684646700454 476.142857142857,232.353881943376 Z" id="hex_149" style="fill: grey; fill-opacity: 1; stroke: black; stroke-opacity: 1; stroke-width: 3" />
	<path d="M 447.857142857143,183.361587672142 447.857142857143,150.700058157986 476.142857142857,134.369293400908 504.428571428571,150.700058157986 504.428571428571,183.361587672142 476.142857142857,199.69235242922 447.857142857143,183.361587672142 Z" id="hex_150" style="fill: grey; fill-opacity: 1; stroke: black; stroke-opacity: 1; stroke-width: 3" />
	<path d="M 391.285714285714,183.361587672142 391.285714285714,150.700058157986 419.571428571429,134.369293400908 447.857142857143,150.700058157986 447.857142857143,183.361587672142 419.571428571429,199.69235242922 391.285714285714,183.361587672142 Z" id="hex_151" style="fill: grey; fill-opacity: 1; stroke: black; stroke-opacity: 1; stroke-width: 3" />
	<path d="M 334.714285714286,183.361587672142 334.714285714286,150.700058157986 363,134.369293400908 391.285714285714,150.700058157986 391.285714285714,183.361587672142 363,199.69235242922 334.714285714286,183.361587672142 Z" id="hex_152" style="fill: grey; fill-opacity: 1; stroke: black; stroke-opacity: 1; stroke-width: 3" />
	<path d="M 278.142857142857,183.361587672142 278.142857142857,150.700058157986 306.428571428571,134.369293400908 334.714285714286,150.700058157986 334.714285714286,183.361587672142 306.428571428571,199.69235242922 278.142857142857,183.361587672142 Z" id="hex_153" style="fill: grey; fill-opacity: 1; stroke: black; stroke-opacity: 1; stroke-width: 3" />
	<path d="M 249.857142857143,232.353881943376 249.857142857143,199.69235242922 278.142857142857,183.361587672142 306.428571428571,199.69235242922 306.428571428571,232.353881943376 278.142857142857,248.684646700454 249.857142857143,232.353881943376 Z" id="hex_154" style="fill: white; fill-opacity: 1; stroke: black; stroke-opacity: 1; stroke-width: 3" />
	<path d="M 221.571428571429,281.34617621461 221.571428571429,248.684646700454 249.857142857143,232.353881943376 278.142857142857,248.684646700454 278.142857142857,281.34617621461 249.857142857143,297.676940971688 221.571428571429,281.34617621461 Z" id="hex_155" style="fill: white; fill-opacity: 1; stroke: black; stroke-opacity: 1; stroke-width: 3" />
	<path d="M 193.285714285714,330.338470485844 193.285714285714,297.676940971688 221.571428571429,281.34617621461 249.857142857143,297.676940971688 249.857142857143,330.338470485844 221.571428571429,346.669235242922 193.285714285714,330.338470485844 Z" id="hex_156" style="fill: white; fill-opacity: 1; stroke: black; stroke-opacity: 1; stroke-width: 3" />
	<path d="M 165,379.330764757078 165,346.669235242922 193.285714285714,330.338470485844 221.571428571429,346.669235242922 221.571428571429,379.330764757078 193.285714285714,395.661529514156 165,379.330764757078 Z" id="hex_157" style="fill: white; fill-opacity: 1; stroke: black; stroke-opacity: 1; stroke-width: 3" />
	<path d="M 193.285714285714,428.323059028312 193.285714285714,395.661529514156 221.571428571429,379.330764757078 249.857142857143,395.661529514156 249.857142857143,428.323059028312 221.571428571429,444.65382378539 193.285714285714,428.323059028312 Z" id="hex_158" style="fill: white; fill-opacity: 1; stroke: black; stroke-opacity: 1; stroke-width: 3" />
	<path d="M 221.571428571429,477.315353299546 221.571428571429,444.65382378539 249.857142857143,428.323059028312 278.142857142857,444.65382378539 278.142857142857,477.315353299546 249.857142857143,493.646118056624 221.571428571429,477.315353299546 Z" id="hex_159" style="fill: white; fill-opacity: 1; stroke: black; stroke-opacity: 1; stroke-width: 3" />
	<path d="M 249.857142857143,526.30764757078 249.857142857143,493.646118056624 278.142857142857,477.315353299546 306.428571428571,493.646118056624 306.428571428571,526.30764757078 278.142857142857,542.638412327858 249.857142857143,526.30764757078 Z" id="hex_160" style="fill: white; fill-opacity: 1; stroke: black; stroke-opacity: 1; stroke-width: 3" />
	<path d="M 306.428571428571,526.30764757078 306.428571428571,493.646118056624 334.714285714286,477.315353299546 363,493.646118056624 363,526.30764757078 334.714285714286,542.638412327858 306.428571428571,526.30764757078 Z" id="hex_161" style="fill: white; fill-opacity: 1; stroke: black; stroke-opacity: 1; stroke-width: 3" />
	<path d="M 363,526.30764757078 363,493.646118056624 391.285714285714,477.315353299546 419.571428571429,493.646118056624 419.571428571429,526.30764757078 391.285714285714,542.638412327858 363,526.30764757078 Z" id="hex_162" style="fill: white; fill-opacity: 1; stroke: black; stroke-opacity: 1; stroke-width: 3" />
	<path d="M 419.571428571429,526.30764757078 419.571428571429,493.646118056624 447.857142857143,477.315353299546 476.142857142857,493.646118056624 476.142857142857,526.30764757078 447.857142857143,542.638412327858 419.571428571429,526.30764757078 Z" id="hex_163" style="fill: white; fill-opacity: 1; stroke: black; stroke-opacity: 1; stroke-width: 3" />
	<path d="M 447.857142857143,477.315353299546 447.857142857143,444.65382378539 476.142857142857,428.323059028312 504.428571428571,444.65382378539 504.428571428571,477.315353299546 476.142857142857,493.646118056624 447.857142857143,477.315353299546 Z" id="hex_164" style="fill: white; fill-opacity: 1; stroke: black; stroke-opacity: 1; stroke-width: 3" />
	<path d="M 476.142857142857,428.323059028312 476.142857142857,395.661529514156 504.428571428571,379.330764757078 532.714285714286,395.661529514156 532.714285714286,428.323059028312 504.428571428571,444.65382378539 476.142857142857,428.323059028312 Z" id="hex_165" style="fill: white; fill-opacity: 1; stroke: black; stroke-opacity: 1; stroke-width: 3" />
	<path d="M 504.428571428571,379.330764757078 504.428571428571,346.669235242922 532.714285714286,330.338470485844 561,346.669235242922 561,379.330764757078 532.714285714286,395.661529514156 504.428571428571,379.330764757078 Z" id="hex_166" style="fill: white; fill-opacity: 1; stroke: black; stroke-opacity: 1; stroke-width: 3" />
	<path d="M 476.142857142857,330.338470485844 476.142857142857,297.676940971688 504.428571428571,281.34617621461 532.714285714286,297.676940971688 532.714285714286,330.338470485844 504.428571428571,346.669235242922 476.142857142857,330.338470485844 Z" id="hex_167" style="fill: white; fill-opacity: 1; stroke: black; stroke-opacity: 1; stroke-width: 3" />
	<path d="M 447.857142857143,281.34617621461 447.857142857143,248.684646700454 476.142857142857,232.353881943376 504.428571428571,248.684646700454 504.428571428571,281.34617621461 476.142857142857,297.676940971688 447.857142857143,281.34617621461 Z" id="hex_168" style="fill: white; fill-opacity: 1; stroke: black; stroke-opacity: 1; stroke-width: 3" />
	<path d="M 419.571428571429,232.353881943376 419.571428571429,199.69235242922 447.857142857143,183.361587672142 476.142857142857,199.69235242922 476.142857142857,232.353881943376 447.857142857143,248.684646700454 419.571428571429,232.353881943376 Z" id="hex_169" style="fill: white; fill-opacity: 1; stroke: black; stroke-opacity: 1; stroke-width: 3" />
	<path d="M 363,232.353881943376 363,199.69235242922 391.285714285714,183.361587672142 419.571428571429,199.69235242922 419.571428571429,232.353881943376 391.285714285714,248.684646700454 363,232.353881943376 Z" id="hex_170" style="fill: white; fill-opacity: 1; stroke: black; stroke-opacity: 1; stroke-width: 3" />
	<path d="M 306.428571428571,232.353881943376 306.428571428571,199.69235242922 334.714285714286,183.361587672142 363,199.69235242922 363,232.353881943376 334.714285714286,248.684646700454 306.428571428571,232.353881943376 Z" id="hex_171" style="fill: white; fill-opacity: 1; stroke: black; stroke-opacity: 1; stroke-width: 3" />
	<path d="M 278.142857142857,281.34617621461 278.142857142857,248.684646700454 306.428571428571,232.353881943376 334.714285714286,248.684646700454 334.714285714286,281.34617621461 306.428571428571,297.676940971688 278.142857142857,281.34617621461 Z" id="hex_172" style="fill: grey; fill-opacity: 1; stroke: black; stroke-opacity: 1; stroke-width: 3" />
	<path d="M 249.857142857143,330.338470485844 249.857142857143,297.676940971688 278.142857142857,281.34617621461 306.428571428571,297.676940971688 306.428571428571,330.338470485844 278.142857142857,346.669235242922 249.857142857143,330.338470485844 Z" id="hex_173" style="fill: grey; fill-opacity: 1; stroke: black; stroke-opacity: 1; stroke-width: 3" />
	<path d="M 221.571428571429,379.330764757078 221.571428571429,346.669235242922 249.857142857143,330.338470485844 278.142857142857,346.669235242922 278.142857142857,379.330764757078 249.857142857143,395.661529514156 221.571428571429,379.330764757078 Z" id="hex_174" style="fill: grey; fill-opacity: 1; stroke: black; stroke-opacity: 1; stroke-width: 3" />
	<path d="M 249.857142857143,428.323059028312 249.857142857143,395.661529514156 278.142857142857,379.330764757078 306.428571428571,395.661529514156 306.428571428571,428.323059028312 278.142857142857,444.65382378539 249.857142857143,428.323059028312 Z" id="hex_175" style="fill: grey; fill-opacity: 1; stroke: black; stroke-opacity: 1; stroke-width: 3" />
	<path d="M 278.142857142857,477.315353299546 278.142857142857,444.65382378539 306.428571428571,428.323059028312 334.714285714286,444.65382378539 334.714285714286,477.315353299546 306.428571428571,493.646118056624 278.142857142857,477.315353299546 Z" id="hex_176" style="fill: grey; fill-opacity: 1; stroke: black; stroke-opacity: 1; stroke-width: 3" />
	<path d="M 334.714285714286,477.315353299546 334.714285714286,444.65382378539 363,428.323059028312 391.285714285714,444.65382378539 391.285714285714,477.315353299546 363,493.646118056624 334.714285714286,477.315353299546 Z" id="hex_177" style="fill: grey; fill-opacity: 1; stroke: black; stroke-opacity: 1; stroke-width: 3" />
	<path d="M 391.285714285714,477.315353299546 391.285714285714,444.65382378539 419.571428571429,428.323059028312 447.857142857143,444.65382378539 447.857142857143,477.315353299546 419.571428571429,493.646118056624 391.285714285714,477.315353299546 Z" id="hex_178" style="fill: grey; fill-opacity: 1; stroke: black; stroke-opacity: 1; stroke-width: 3" />
	<path d="M 419.571428571429,428.323059028312 419.571428571429,395.661529514156 447.857142857143,379.330764757078 476.142857142857,395.661529514156 476.142857142857,428.323059028312 447.857142857143,444.65382378539 419.571428571429,428.323059028312 Z" id="hex_179" style="fill: grey; fill-opacity: 1; stroke: black; stroke-opacity: 1; stroke-width: 3" />
	<path d="M 447.857142857143,379.330764757078 447.857142857143,346.669235242922 476.142857142857,330.338470485844 504.428571428571,346.669235242922 504.428571428571,379.330764757078 476.142857142857,395.661529514156 447.857142857143,379.330764757078 Z" id="hex_180" style="fill: grey; fill-opacity: 1; stroke: black; stroke-opacity: 1; stroke-width: 3" />
	<path d="M 419.571428571429,330.338470485844 419.571428571429,297.676940971688 447.857142857143,281.34617621461 476.142857142857,297.676940971688 476.142857142857,330.338470485844 447.857142857143,346.669235242922 419.571428571429,330.338470485844 Z" id="hex_181" style="fill: grey; fill-opacity: 1; stroke: black; stroke-opacity: 1; stroke-width: 3" />
	<path d="M 391.285714285714,281.34617621461 391.285714285714,248.684646700454 419.571428571429,232.353881943376 447.857142857143,248.684646700454 447.857142857143,281.34617621461 419.571428571429,297.676940971688 391.285714285714,281.34617621461 Z" id="hex_182" style="fill: grey; fill-opacity: 1; stroke: black; stroke-opacity: 1; stroke-width: 3" />
	<path d="M 334.714285714286,281.34617621461 334.714285714286,248.684646700454 363,232.353881943376 391.285714285714,248.684646700454 391.285714285714,281.34617621461 363,297.676940971688 334.714285714286,281.34617621461 Z" id="hex_183" style="fill: grey; fill-opacity: 1; stroke: black; stroke-opacity: 1; stroke-width: 3" />
	<path d="M 306.428571428571,330.338470485844 306.428571428571,297.676940971688 334.714285714286,281.34617621461 363,297.676940971688 363,330.338470485844 334.714285714286,346.669235242922 306.428571428571,330.338470485844 Z" id="hex_184" style="fill: white; fill-opacity: 1; stroke: black; stroke-opacity: 1; stroke-width: 3" />
	<path d="M 278.142857142857,379.330764757078 278.142857142857,346.669235242922 306.428571428571,330.338470485844 334.714285714286,346.669235242922 334.714285714286,379.330764757078 306.428571428571,395.661529514156 278.142857142857,379.330764757078 Z" id="hex_185" style="fill: white; fill-opacity: 1; stroke: black; stroke-opacity: 1; stroke-width: 3" />
	<path d="M 306.428571428571,428.323059028312 306.428571428571,395.661529514156 334.714285714286,379.330764757078 363,395.661529514156 363,428.323059028312 334.714285714286,444.65382378539 306.428571428571,428.323059028312 Z" id="hex_186" style="fill: white; fill-opacity: 1; stroke: black; stroke-opacity: 1; stroke-width: 3" />
	<path d="M 363,428.323059028312 363,395.661529514156 391.285714285714,379.330764757078 419.571428571429,395.661529514156 419.571428571429,428.323059028312 391.285714285714,444.65382378539 363,428.323059028312 Z" id="hex_187" style="fill: white; fill-opacity: 1; stroke: black; stroke-opacity: 1; stroke-width: 3" />
	<path d="M 391.285714285714,379.330764757078 391.285714285714,346.669235242922 419.571428571429,330.338470485844 447.857142857143,346.669235242922 447.857142857143,379.330764757078 419.571428571429,395.661529514156 391.285714285714,379.330764757078 Z" id="hex_188" style="fill: white; fill-opacity: 1; stroke: black; stroke-opacity: 1; stroke-width: 3" />
	<path d="M 363,330.338470485844 363,297.676940971688 391.285714285714,281.34617621461 419.571428571429,297.676940971688 419.571428571429,330.338470485844 391.285714285714,346.669235242922 363,330.338470485844 Z" id="hex_189" style="fill: white; fill-opacity: 1; stroke: black; stroke-opacity: 1; stroke-width: 3" />
	<path d="M 334.714285714286,379.330764757078 334.714285714286,346.669235242922 363,330.338470485844 391.285714285714,346.669235242922 391.285714285714,379.330764757078 363,395.661529514156 334.714285714286,379.330764757078 Z" id="hex_190" style="fill: purple; fill-opacity: 1; stroke: black; stroke-opacity: 1; stroke-width: 3" />
	<!--<rect height="726" style="fill: black; fill-opacity: 0; stroke: black; stroke-opacity: 1; stroke-width: 3" width="726" x="0" y="0" />-->
	<text id="l1" style="fill: black; font: Serif; font-size: 33" x="209" y="62.7">6x6 Hex Board (Agnon)</text>
	<!--
	Generated using the Perl SVG Module V2.84
	by Ronan Oger
	Info: http://www.roitsystems.com/
	-->
</svg>